<svg xmlns="http://www.w3.org/2000/svg" xmlns:xlink="http://www.w3.org/1999/xlink" width="1366" height="793.21">
  <defs>
    <linearGradient id="j" x1="402.57" y1="-184.56" x2="907.03" y2="622.87" gradientUnits="userSpaceOnUse">
      <stop offset="0" stop-color="#150773"/>
      <stop offset=".69" stop-color="#5333ed"/>
      <stop offset="1" stop-color="#2cd4d9"/>
    </linearGradient>
    <linearGradient id="b" x1="169.29" y1="678.53" x2="709.58" y2="138.24" gradientUnits="userSpaceOnUse">
      <stop offset="0" stop-color="#2cd4d9" stop-opacity="0"/>
      <stop offset=".52" stop-color="#2cd4d9" stop-opacity=".5"/>
      <stop offset="1" stop-color="#2cd4d9" stop-opacity="0"/>
    </linearGradient>
    <linearGradient id="a" x1="102.53" y1="639.21" x2="430.51" y2="311.22" gradientUnits="userSpaceOnUse">
      <stop offset="0" stop-color="#2cd4d9" stop-opacity="0"/>
      <stop offset="1" stop-color="#2cd4d9" stop-opacity=".5"/>
    </linearGradient>
    <linearGradient id="k" x1="619.72" y1="241.02" x2="713.63" y2="241.02" gradientUnits="userSpaceOnUse">
      <stop offset="0" stop-color="#2cd4d9" stop-opacity=".5"/>
      <stop offset="1" stop-color="#2cd4d9" stop-opacity="0"/>
    </linearGradient>
    <linearGradient id="l" x1="206.96" y1="580.14" x2="557.21" y2="229.88" xlink:href="#a"/>
    <linearGradient id="m" x1="114.28" y1="604.72" x2="573.85" y2="145.16" gradientUnits="userSpaceOnUse">
      <stop offset="0" stop-color="#5333ed" stop-opacity="0"/>
      <stop offset=".48" stop-color="#5333ed" stop-opacity=".5"/>
      <stop offset="1" stop-color="#5333ed" stop-opacity="0"/>
    </linearGradient>
    <linearGradient id="n" x1="185.52" y1="548.46" x2="576.93" y2="157.04" gradientUnits="userSpaceOnUse">
      <stop offset="0" stop-color="#2cd4d9" stop-opacity="0"/>
      <stop offset=".46" stop-color="#2cd4d9" stop-opacity=".5"/>
      <stop offset="1" stop-color="#2cd4d9" stop-opacity="0"/>
    </linearGradient>
    <linearGradient id="o" x1="717.83" y1="555.55" x2="261.6" y2="292.15" gradientUnits="userSpaceOnUse">
      <stop offset="0" stop-color="#5333ed" stop-opacity="0"/>
      <stop offset="1" stop-color="#5333ed" stop-opacity=".5"/>
    </linearGradient>
    <linearGradient id="p" x1="515.54" y1="602.8" x2="973.03" y2="602.8" xlink:href="#b"/>
    <linearGradient id="q" x1="456.31" y1="595.53" x2="943.17" y2="595.53" gradientUnits="userSpaceOnUse">
      <stop offset="0" stop-color="#2cd4d9" stop-opacity="0"/>
      <stop offset=".58" stop-color="#2cd4d9" stop-opacity=".5"/>
      <stop offset="1" stop-color="#2cd4d9" stop-opacity=".1"/>
    </linearGradient>
    <linearGradient id="r" x1="483.69" y1="628.74" x2="955.84" y2="628.74" gradientUnits="userSpaceOnUse">
      <stop offset="0" stop-color="#5333ed" stop-opacity="0"/>
      <stop offset=".01" stop-color="#5333ed" stop-opacity=".01"/>
      <stop offset=".14" stop-color="#5333ed" stop-opacity=".16"/>
      <stop offset=".28" stop-color="#5333ed" stop-opacity=".28"/>
      <stop offset=".42" stop-color="#5333ed" stop-opacity=".38"/>
      <stop offset=".58" stop-color="#5333ed" stop-opacity=".45"/>
      <stop offset=".76" stop-color="#5333ed" stop-opacity=".49"/>
      <stop offset="1" stop-color="#5333ed" stop-opacity=".5"/>
    </linearGradient>
    <linearGradient id="i" x1="276.31" y1="358.26" x2="262.31" y2="312.26" gradientUnits="userSpaceOnUse">
      <stop offset="0" stop-color="#2cd4d9" stop-opacity=".4"/>
      <stop offset=".45" stop-color="#2cd4d9" stop-opacity=".32"/>
      <stop offset="1" stop-color="#2cd4d9" stop-opacity=".2"/>
    </linearGradient>
    <linearGradient id="c" x1="293.24" y1="369.38" x2="271.05" y2="338.88" gradientUnits="userSpaceOnUse">
      <stop offset="0" stop-color="#2cd4d9" stop-opacity=".5"/>
      <stop offset=".32" stop-color="#2cd4d9" stop-opacity=".42"/>
      <stop offset=".95" stop-color="#2cd4d9" stop-opacity=".22"/>
      <stop offset="1" stop-color="#2cd4d9" stop-opacity=".2"/>
    </linearGradient>
    <linearGradient id="s" x1="467.31" y1="499.43" x2="309.31" y2="397.93" gradientUnits="userSpaceOnUse">
      <stop offset="0" stop-color="#5333ed" stop-opacity=".4"/>
      <stop offset=".45" stop-color="#4473e5" stop-opacity=".36"/>
      <stop offset="1" stop-color="#2cd4d9" stop-opacity=".3"/>
    </linearGradient>
    <linearGradient id="t" x1="308.37" y1="401.49" x2="288.87" y2="364.99" xlink:href="#c"/>
    <linearGradient id="g" x1="686.05" y1="512.7" x2="663.84" y2="482.15" gradientUnits="userSpaceOnUse">
      <stop offset="0" stop-color="#2cd4d9" stop-opacity=".3"/>
      <stop offset=".81" stop-color="#2cd4d9" stop-opacity=".22"/>
      <stop offset="1" stop-color="#2cd4d9" stop-opacity=".2"/>
    </linearGradient>
    <linearGradient id="u" x1="220.02" y1="655.66" x2="144.52" y2="727.16" gradientUnits="userSpaceOnUse">
      <stop offset="0" stop-color="#2cd4d9" stop-opacity=".5"/>
      <stop offset=".09" stop-color="#27adc3" stop-opacity=".5"/>
      <stop offset=".31" stop-color="#1c5391" stop-opacity=".5"/>
      <stop offset=".48" stop-color="#151b73" stop-opacity=".5"/>
      <stop offset=".58" stop-color="#120667" stop-opacity=".5"/>
      <stop offset=".69" stop-color="#120667" stop-opacity=".46"/>
      <stop offset=".81" stop-color="#120667" stop-opacity=".33"/>
      <stop offset=".94" stop-color="#120667" stop-opacity=".13"/>
      <stop offset="1" stop-color="#120667" stop-opacity="0"/>
    </linearGradient>
    <linearGradient id="h" x1="697.97" y1="552.09" x2="683.97" y2="506.09" gradientUnits="userSpaceOnUse">
      <stop offset="0" stop-color="#2cd4d9" stop-opacity=".1"/>
      <stop offset=".81" stop-color="#2cd4d9" stop-opacity=".18"/>
      <stop offset="1" stop-color="#2cd4d9" stop-opacity=".2"/>
    </linearGradient>
    <linearGradient id="v" x1="663.3" y1="488.02" x2="656.18" y2="455.39" gradientUnits="userSpaceOnUse">
      <stop offset="0" stop-color="#2cd4d9" stop-opacity=".1"/>
      <stop offset=".7" stop-color="#4669e6" stop-opacity=".17"/>
      <stop offset="1" stop-color="#5333ed" stop-opacity=".2"/>
    </linearGradient>
    <linearGradient id="w" x1="345.38" y1="712.09" x2="609.22" y2="255.1" gradientUnits="userSpaceOnUse">
      <stop offset="0" stop-color="#2cd4d9" stop-opacity=".6"/>
      <stop offset=".1" stop-color="#36abde" stop-opacity=".65"/>
      <stop offset=".27" stop-color="#466ae6" stop-opacity=".73"/>
      <stop offset=".42" stop-color="#4f42eb" stop-opacity=".78"/>
      <stop offset=".52" stop-color="#5333ed" stop-opacity=".8"/>
      <stop offset=".59" stop-color="#5333ed" stop-opacity=".78"/>
      <stop offset=".66" stop-color="#5333ed" stop-opacity=".73"/>
      <stop offset=".73" stop-color="#5333ed" stop-opacity=".65"/>
      <stop offset=".8" stop-color="#5333ed" stop-opacity=".53"/>
      <stop offset=".87" stop-color="#5333ed" stop-opacity=".38"/>
      <stop offset=".94" stop-color="#5333ed" stop-opacity=".2"/>
      <stop offset="1" stop-color="#5333ed" stop-opacity="0"/>
    </linearGradient>
    <linearGradient id="d" x1="202.5" y1="596.3" x2="367.88" y2="596.3" gradientUnits="userSpaceOnUse">
      <stop offset="0" stop-color="#2cd4d9" stop-opacity=".9"/>
      <stop offset=".13" stop-color="#2cd4d9" stop-opacity=".82"/>
      <stop offset=".38" stop-color="#2cd4d9" stop-opacity=".61"/>
      <stop offset=".72" stop-color="#2cd4d9" stop-opacity=".29"/>
      <stop offset="1" stop-color="#2cd4d9" stop-opacity="0"/>
    </linearGradient>
    <linearGradient id="e" x1="202.5" y1="590.21" x2="367.88" y2="590.21" gradientUnits="userSpaceOnUse">
      <stop offset="0" stop-color="#2cd4d9" stop-opacity=".6"/>
      <stop offset=".18" stop-color="#2cd4d9" stop-opacity=".52"/>
      <stop offset=".53" stop-color="#2cd4d9" stop-opacity=".32"/>
      <stop offset="1" stop-color="#2cd4d9" stop-opacity="0"/>
    </linearGradient>
    <linearGradient id="f" x1="202.5" y1="583.99" x2="367.88" y2="583.99" gradientUnits="userSpaceOnUse">
      <stop offset="0" stop-color="#2cd4d9" stop-opacity=".2"/>
      <stop offset=".45" stop-color="#2cd4d9" stop-opacity=".12"/>
      <stop offset="1" stop-color="#2cd4d9" stop-opacity="0"/>
    </linearGradient>
    <linearGradient id="x" x1="260.97" y1="629.72" x2="426.35" y2="629.72" xlink:href="#d"/>
    <linearGradient id="y" x1="260.97" y1="623.62" x2="426.35" y2="623.62" xlink:href="#e"/>
    <linearGradient id="z" x1="260.97" y1="617.4" x2="426.35" y2="617.4" xlink:href="#f"/>
    <linearGradient id="A" x1="94.04" y1="532.58" x2="518.68" y2="532.58" gradientUnits="userSpaceOnUse">
      <stop offset="0" stop-color="#5333ed" stop-opacity="0"/>
      <stop offset="1" stop-color="#5333ed" stop-opacity=".4"/>
    </linearGradient>
    <linearGradient id="B" x1="715.29" y1="562.76" x2="693.08" y2="532.21" xlink:href="#g"/>
    <linearGradient id="C" x1="727.21" y1="602.15" x2="713.21" y2="556.15" xlink:href="#h"/>
    <linearGradient id="D" x1="780.69" y1="607.08" x2="842.23" y2="698.81" xlink:href="#f"/>
    <linearGradient id="E" x1="247.68" y1="307.54" x2="233.68" y2="261.54" xlink:href="#i"/>
    <linearGradient id="F" x1="235.57" y1="272.45" x2="191.23" y2="223.45" gradientUnits="userSpaceOnUse">
      <stop offset="0" stop-color="#2cd4d9" stop-opacity=".4"/>
      <stop offset=".25" stop-color="#34b4dd" stop-opacity=".32"/>
      <stop offset=".75" stop-color="#4862e7" stop-opacity=".12"/>
      <stop offset="1" stop-color="#5333ed" stop-opacity="0"/>
    </linearGradient>
    <linearGradient id="G" x1="264.61" y1="318.66" x2="242.43" y2="288.16" xlink:href="#c"/>
    <linearGradient id="H" x1="463.68" y1="179.72" x2="468.08" y2="227.5" gradientUnits="userSpaceOnUse">
      <stop offset="0" stop-color="#5333ed"/>
      <stop offset="1" stop-color="#2cd4d9"/>
    </linearGradient>
    <linearGradient id="I" x1="455.22" y1="141.77" x2="459.3" y2="140.69" gradientUnits="userSpaceOnUse">
      <stop offset="0" stop-color="#5333ed"/>
      <stop offset="1" stop-color="#120667"/>
    </linearGradient>
    <linearGradient id="J" x1="681.32" y1="294.23" x2="691.72" y2="332.01" gradientUnits="userSpaceOnUse">
      <stop offset="0" stop-color="#150773"/>
      <stop offset="1" stop-color="#dfe9f8"/>
    </linearGradient>
  </defs>
  <g data-name="figures and interactions">
    <path fill="#120667" d="M0 794.57h455.05L0 531.89v262.68z"/>
    <path fill="url(#j)" d="M1368.06 0H0v531.89l455.05 262.68h913.01V0z"/>
    <path style="mix-blend-mode:color-dodge" fill="none" stroke-miterlimit="10" stroke-width="2" stroke="url(#b)" d="M107.74 616.61l377.45-217.26-.68-33.76 286.63-165.43"/>
    <path style="mix-blend-mode:color-dodge" fill="none" stroke-miterlimit="10" stroke-width="2" stroke="url(#a)" d="M48.52 584.85l58.16-34.69h58.15l319.68-184.57"/>
    <path style="mix-blend-mode:color-dodge" fill="none" stroke-miterlimit="10" stroke-width="2" stroke="url(#k)" d="M620.22 267.79l92.91-53.54"/>
    <path style="mix-blend-mode:color-dodge" fill="none" stroke-miterlimit="10" stroke-width="2" stroke="url(#l)" d="M160.11 532.92L604.06 277.1"/>
    <path style="mix-blend-mode:multiply" fill="none" stroke-miterlimit="10" stroke-width="2" stroke="url(#m)" d="M631.16 202.85l-87.59 50.16-.03 13.3L56.96 547.04"/>
    <path style="mix-blend-mode:color-dodge" fill="none" stroke-miterlimit="10" stroke-width="2" stroke="url(#n)" d="M129.63 492.2l29.03-16.76 60.05 1.09-1.71-34.56 320.51-184.88h20.93l74.39-43.8"/>
    <path style="mix-blend-mode:multiply" fill="none" stroke-miterlimit="10" stroke-width="2" stroke="url(#o)" d="M49.43 661.37l434.65-250.95 58.34.1L930 186.33"/>
    <path style="mix-blend-mode:color-dodge" fill="none" stroke-miterlimit="10" stroke-width="2" stroke="url(#p)" d="M516.04 750.92l427.3-245.26-.67-33.76 29.86-17.23"/>
    <path fill="none" stroke-miterlimit="10" stroke-width="2" stroke="url(#q)" d="M456.82 719.16l58.16-34.68h58.16L942.67 471.9"/>
    <path style="mix-blend-mode:multiply" fill="none" stroke-miterlimit="10" stroke-width="2" stroke="url(#r)" d="M484.18 747.74L897.5 509.88l58.34.1"/>
    <path opacity=".84" fill="url(#i)" d="M295.79 327.77l.45-33.84h-.01l-58.46 33.75v33.75l58.16-33.58-.14-.08z"/>
    <path style="mix-blend-mode:color-dodge" fill="none" stroke="#2cd4d9" stroke-miterlimit="10" stroke-width="2" opacity=".5" d="M210.65 198.5l.59-44.09-.01-24.81-76.17 43.98v68.77l75.59-43.85z"/>
    <path style="mix-blend-mode:color-dodge" fill="none" stroke="#2cd4d9" stroke-miterlimit="10" stroke-width="2" opacity=".23" d="M168.14 171.1l.83-62.1-.02-34.94L61.67 136v96.86l106.47-61.76z"/>
    <path opacity=".84" fill="url(#c)" d="M324.87 344.56l-28.94-16.71-58.16 33.58 29.06 16.67 58.04-33.51v-.03z"/>
    <path fill="url(#s)" d="M324.87 378.14l-57.98 33.47v.21l174.29 100.63 58.16-33.58-174.47-100.73z"/>
    <path opacity=".84" fill="url(#t)" d="M324.87 344.59l-58.04 33.51.06.04v33.47l57.98-33.47v-33.55z"/>
    <path opacity=".84" fill="url(#g)" d="M717.89 487.76l-29.37-16.5-58.15 33.58 29.05 16.67 58.47-33.75z"/>
    <path opacity=".84" fill="url(#u)" d="M262.22 683.23l-60.2-34.71-118.05 68.46 59.89 34.89 118.36-68.64z"/>
    <path opacity=".84" fill="url(#h)" d="M717.45 521.6l.45-33.84h-.01l-58.46 33.75v33.75l58.16-33.58-.14-.08z"/>
    <path opacity=".84" fill="url(#v)" d="M688.39 471.18l.45-33.84-.01-.01-58.46 33.76v33.74l58.16-33.57-.14-.08z"/>
    <path d="M262.22 683.23L202 648.52l431.61-245.08-183.29-106.95a46.53 46.53 0 0 1 0-80.6l62.2-36L571.41 214l-72.89 42.22 183.32 107a46.53 46.53 0 0 1-.05 80.63z" fill="url(#w)"/>
    <path d="M583.84 450.47h-.2z" fill="#2cd4d9"/>
    <path fill="none" stroke-miterlimit="10" stroke-width="2" stroke="url(#d)" d="M203 643.72l164.38-94.83"/>
    <path fill="none" stroke-miterlimit="10" stroke-width="2" stroke="url(#e)" d="M203 637.62l164.38-94.82"/>
    <path fill="none" stroke-miterlimit="10" stroke-width="2" stroke="url(#f)" d="M203 631.4l164.38-94.82"/>
    <path fill="none" stroke-miterlimit="10" stroke-width="2" stroke="url(#x)" d="M261.47 677.13l164.38-94.83"/>
    <path fill="none" stroke-miterlimit="10" stroke-width="2" stroke="url(#y)" d="M261.47 671.03l164.38-94.82"/>
    <path fill="none" stroke-miterlimit="10" stroke-width="2" stroke="url(#z)" d="M261.47 664.82l164.38-94.83"/>
    <circle cx="108.45" cy="558.14" r="2" style="mix-blend-mode:color-dodge" fill="none" stroke="#2cd4d9" stroke-miterlimit="10" stroke-width="2" opacity=".2"/>
    <circle cx="100.74" cy="562.69" r="2" style="mix-blend-mode:color-dodge" fill="none" stroke="#2cd4d9" stroke-miterlimit="10" stroke-width="2" opacity=".2"/>
    <circle cx="617.83" cy="269.19" r="2" style="mix-blend-mode:color-dodge" fill="none" stroke="#2cd4d9" stroke-miterlimit="10" stroke-width="2" opacity=".5"/>
    <circle cx="606.5" cy="275.68" r="2" style="mix-blend-mode:color-dodge" fill="none" stroke="#2cd4d9" stroke-miterlimit="10" stroke-width="2" opacity=".5"/>
    <path style="mix-blend-mode:color-dodge" fill="none" stroke="#2cd4d9" stroke-miterlimit="10" stroke-width="2" opacity=".23" d="M764.71 201.22l-1.22-91.85.02-51.69L922.2 149.3v143.28h-.01l-157.48-91.36z"/>
    <path style="mix-blend-mode:color-dodge" fill="none" stroke="#2cd4d9" stroke-miterlimit="10" stroke-width="2" opacity=".5" d="M773.75 144.53l.45-33.83-.01-19.05-58.46 33.76v52.78l58.02-33.66z"/>
    <path style="mix-blend-mode:multiply" fill="none" stroke-miterlimit="10" stroke-width="2" stroke="url(#A)" d="M518.18 410.48L94.54 654.69"/>
    <path opacity=".84" fill="url(#B)" d="M747.13 537.82l-29.37-16.5-58.16 33.58 29.06 16.67 58.47-33.75z"/>
    <path opacity=".84" fill="url(#C)" d="M746.68 571.66l.45-33.84-58.47 33.75v33.75l58.16-33.58-.14-.08z"/>
    <path opacity=".84" fill="url(#D)" d="M913.75 670l-166.93-98.26-58.16 33.58 167.05 98.22L913.75 670z"/>
    <path opacity=".84" fill="url(#E)" d="M267.16 277.05l.45-33.84h-.01l-58.46 33.75v33.75l58.16-33.58-.14-.08z"/>
    <path opacity=".84" fill="url(#F)" d="M209 209.9l-58.15 33.57 58.29 32.55v.94l58.46-33.75L209 209.9z"/>
    <path opacity=".84" fill="url(#G)" d="M296.24 293.84l-28.94-16.71-58.16 33.58 29.06 16.67 58.04-33.51v-.03z"/>
    <g data-name="&lt;Group&gt;">
      <path data-name="&lt;Path&gt;" fill="#dfe9f8" d="M456.29 525.9v65.53l64.89-37.47-.01-65.51-64.88 37.45z"/>
      <path data-name="&lt;Path&gt;" fill="#fff" d="M521.17 488.45V478l-64.88 37.46v10.44l64.88-37.45z"/>
      <path data-name="&lt;Path&gt;" fill="#120667" d="M456.29 515.46l-14.82 8.55.01 10.45 14.81-8.56v-10.44z"/>
      <g data-name="&lt;Group&gt;">
        <path data-name="&lt;Path&gt;" fill="#2cd4d9" d="M456.29 525.9l-14.81 8.56v6.19l14.81-8.55v-6.2z"/>
        <path data-name="&lt;Path&gt;" fill="#120667" d="M441.48 540.65l.01 59.33 14.8-8.55V532.1l-14.81 8.55z"/>
      </g>
      <path data-name="&lt;Path&gt;" fill="#2cd4d9" d="M453.25 521.99l-8.47 4.9v1.79l8.47-4.9v-1.79z"/>
    </g>
    <path d="M543.73 525.11a3.77 3.77 0 0 0-1.4.57.85.85 0 0 0-.29.28c-.38.66.23 1.72 1.36 2.37l.27.19c1.31 1 3.22.91 5.23-.25.01.01-4.77-3.27-5.17-3.16z" fill="#120667"/>
    <path d="M560.09 652.4v-2.7a2.94 2.94 0 0 0-1.77-2.7l-.82-.35a3.6 3.6 0 0 0-3.89.66 69.31 69.31 0 0 0-6 6.48c-1 1.17-1.63 2.1-2.2 2.73a1.92 1.92 0 0 0 .49 3l.69.39a1.93 1.93 0 0 0 1.92 0l10.86-6.27a1.38 1.38 0 0 0 .72-1.24z" fill="#2cd4d9"/>
    <path d="M545.85 658.19a1.93 1.93 0 0 0 .94 1.29l.69.39a1.93 1.93 0 0 0 1.92 0l10.42-6" fill="none" stroke="#fff" stroke-linecap="round" stroke-miterlimit="10" stroke-width="1.7198175"/>
    <path d="M559.39 641.95l-5.48-2.07-.35 7c-.22.83.53 2 1.83 2.75s3 .83 3.47 0a1.1 1.1 0 0 0 .14-.63z" fill="#b7835f"/>
    <ellipse cx="555.02" cy="648.7" rx="1.41" ry="2.44" transform="rotate(-60 555.0191103 648.6987018)" fill="#2cd4d9"/>
    <path d="M549.27 651.86l2.34-2.65a9.57 9.57 0 0 0 1.29-1.74l4.23 2.44a4.18 4.18 0 0 1-1.13 1.65l-3.36 2.76z" fill="#2cd4d9"/>
    <path d="M552.43 648.13a3.45 3.45 0 0 1 1.79.5c1.17.67 1.8 1.77 1.41 2.44M551.14 649.75a3.32 3.32 0 0 1 1.72.49c1.13.65 1.73 1.7 1.36 2.35M549.7 651.41a3.09 3.09 0 0 1 1.6.45c1 .61 1.61 1.59 1.26 2.19" fill="none" stroke="#120667" stroke-linecap="round" stroke-miterlimit="10" stroke-width=".5"/>
    <path fill="none" stroke="#fff" stroke-linecap="round" stroke-miterlimit="10" stroke-width="1.7198175" d="M544.87 658.37l2.25 1.3"/>
    <path d="M571.28 658.93v-2.7a2.94 2.94 0 0 0-1.77-2.7l-.82-.35a3.6 3.6 0 0 0-3.89.66 69.31 69.31 0 0 0-6 6.48c-1 1.17-1.63 2.1-2.2 2.73a1.92 1.92 0 0 0 .49 3l.69.39a1.93 1.93 0 0 0 1.92 0l10.86-6.27a1.38 1.38 0 0 0 .72-1.24z" fill="#2cd4d9"/>
    <path d="M557 664.72a1.93 1.93 0 0 0 1 1.28l.69.39a1.93 1.93 0 0 0 1.92 0l10.42-6" fill="none" stroke="#fff" stroke-linecap="round" stroke-miterlimit="10" stroke-width="1.7198175"/>
    <path d="M570.58 648.48l-5.48-2.07-.35 7c-.22.83.53 2 1.83 2.75s3 .83 3.47 0a1.1 1.1 0 0 0 .13-.56z" fill="#b7835f"/>
    <path d="M560 644.69v-1.48c0-1.1-.94-2.51-2.56-3.44-2-1.14-4.11-1.14-4.76 0a1.63 1.63 0 0 0-.14 1.15h-.05v1.42c0 1.09 1 2.45 2.56 3.36 2 1.14 4.11 1.14 4.76 0a1.45 1.45 0 0 0 .17-.53V645a1.81 1.81 0 0 0 .02-.31zM571.65 649.91c0-1.1-.95-2.5-2.56-3.43-2-1.14-4.11-1.14-4.76 0a1.55 1.55 0 0 0-.18.94v1.52c-.06 1.11.94 2.52 2.56 3.45 2 1.14 4.11 1.14 4.76 0a1.48 1.48 0 0 0 .17-.7z" fill="#120667"/>
    <path d="M572.34 623.42c0-5.37-1.48-23.18-1.7-25.62a229.7 229.7 0 0 0-4.58-23.66v-.11c-.36-3.58-3.65-7.85-8.69-10.76-6.68-3.86-13.9-3.86-16.13 0a4.92 4.92 0 0 0-.61 2s-1.78 6.3.85 19.6a4.1 4.1 0 0 0 .17.9s2.72 10.09 6.88 26.56a148.1 148.1 0 0 1 4.66 27.28c-.57 1 .35 2.59 2.07 3.58s3.57 1 4.14 0a1.26 1.26 0 0 0 .15-.48v-.08a1.64 1.64 0 0 0 0-.38c-.14-3.22-1-22.53-1.32-26.91v-.22-.11c-.41-5.24-2.85-23-3.15-25.11l1.08.69s.69 2.22 1 3.3a4.58 4.58 0 0 0 .33 1.22 205.72 205.72 0 0 1 5.26 25v.16a2.68 2.68 0 0 0 .06.49c1.67 12.51 2.35 22.64 1.95 25.79-.25 1 .64 2.38 2.18 3.27 1.71 1 3.57 1 4.14 0a1.32 1.32 0 0 0 .16-.71s1.13-20.31 1.1-25.69z" fill="#dfe9f8"/>
    <ellipse cx="566.21" cy="655.23" rx="1.41" ry="2.44" transform="rotate(-60 566.2127995 655.2306633)" fill="#2cd4d9"/>
    <path d="M566.5 575.66s-1.62 0-1.49 4.16a4.33 4.33 0 0 0 2.91 4.16l-1-6.75z" style="mix-blend-mode:multiply" fill="#dfe9f8"/>
    <path d="M569.8 596.21l3.05-20.55h-5.28l-1.76 19.61c-.52 2.23-1.89 8.06-2 8.29s-.88 4.2-.88 4.2l.32 2.61c1-.71.66-2.28.66-2.28l.84-3.26-.36 3.47 1 3.07a3.13 3.13 0 0 0 .06-3.06l.71-3.25-.3 3.44.33 2.87a3.4 3.4 0 0 0 .79-3.16l.73-4v3.68l1.11 1.74a3.13 3.13 0 0 0-.3-2.23l.37-3a22.06 22.06 0 0 0 .9-8.18z" fill="#eba87c"/>
    <path d="M573.27 582.44v-1.75c.13-1.09-.86-2.53-2.49-3.47-1.92-1.11-4-1.11-4.63 0a1.47 1.47 0 0 0-.18.8v2c-.06 1.08.92 2.45 2.5 3.36 1.92 1.11 4 1.11 4.63 0a1.4 1.4 0 0 0 .17-.53 1.75 1.75 0 0 0 0-.41z" fill="#dfe9f8"/>
    <path d="M571.47 546.4a4.87 4.87 0 0 0-2.06-2.12l-.12-.06L547 531.31a14.63 14.63 0 0 0-6.35-1.81 7.84 7.84 0 0 0-1.09.08 8.38 8.38 0 0 0-3.56 1.14 6.91 6.91 0 0 0-3.45 4c-2.75 15.13-6.95 18.9-10.88 18.18-3-1.45-6-1.36-6.94.34s.65 4.77 3.8 6.59a10.52 10.52 0 0 0 2.8 1.12c7 2.8 12.44-2.54 16.3-9.29a35 35 0 0 0 1.16 4.22v3.64c-.21 3.87 3.3 8.81 9 12.08 6.89 4 14.33 4 16.63 0a5.05 5.05 0 0 0 .62-1.9 6.27 6.27 0 0 0 0-1.53v-4.21a8.46 8.46 0 0 1 .92-2.16c1.26 16.16 1.24 16.75 1.24 16.75a2.8 2.8 0 0 0 1.67 2.35c1.29.75 2.69.74 3.12 0a.93.93 0 0 0 .1-.27c3.49-13.19 3.5-27.21-.62-34.23z" fill="#120667"/>
    <path d="M560.46 658.39l2.34-2.65a9.57 9.57 0 0 0 1.29-1.74l4.23 2.44a4.18 4.18 0 0 1-1.13 1.65l-3.36 2.76z" fill="#2cd4d9"/>
    <path d="M563.62 654.66a3.45 3.45 0 0 1 1.79.5c1.17.67 1.8 1.77 1.41 2.44M562.33 656.28a3.32 3.32 0 0 1 1.72.49c1.13.65 1.73 1.7 1.36 2.35M560.89 657.94a3.09 3.09 0 0 1 1.6.45c1 .61 1.61 1.59 1.26 2.19M551.83 648.91a3.32 3.32 0 0 1 1.72.49c1.13.65 1.73 1.7 1.36 2.35M550.39 650.57a3.09 3.09 0 0 1 1.6.45c1 .61 1.61 1.59 1.26 2.19M563 655.44a3.32 3.32 0 0 1 1.72.49c1.13.65 1.73 1.7 1.36 2.35M561.58 657.1a3.09 3.09 0 0 1 1.6.45c1 .61 1.61 1.59 1.26 2.19" fill="none" stroke="#120667" stroke-linecap="round" stroke-miterlimit="10" stroke-width=".5"/>
    <path fill="none" stroke="#fff" stroke-linecap="round" stroke-miterlimit="10" stroke-width="1.7198175" d="M556.06 664.91l2.25 1.29"/>
    <ellipse cx="518.43" cy="555.35" rx="3.84" ry="6.65" transform="rotate(-60 518.4323597 555.3488128)" fill="#dfe9f8"/>
    <ellipse cx="517.62" cy="554.84" rx="3.42" ry="5.92" transform="rotate(-60 517.6209753 554.8341718)" style="mix-blend-mode:multiply" fill="#dfe9f8"/>
    <path d="M497.85 539.95l-2.44-.69c.29 1.13 1.88 1.43 1.88 1.43l2.43 1.64a22.3 22.3 0 0 0 6.78 4.83 2.64 2.64 0 0 0 2.13-.1 1.44 1.44 0 0 0 .83-2.05.8.8 0 0 0-.23-.29l-6.3-6.41c-.21-.21-3.16-3-3.16-3l-2.55-1.48c.13 1.24 1.77 2.18 1.77 2.18l2.35 2.47-2.64-1.92-3.15-1a4.23 4.23 0 0 0 2.61 2l2.26 2.11-2.55-1.76-2.69-1.57a3.49 3.49 0 0 0 2.05 2.35l3.2 2.76z" fill="#b7835f"/>
    <path d="M519.87 553.21l-10.55-8.57a5.74 5.74 0 0 0-.65-.51s-1.38-3.06-2.26-3.73a20.07 20.07 0 0 0-3.37-1.21h-1.92a3.47 3.47 0 0 0 2.48 1.4l.8.56a5.22 5.22 0 0 0-.39 3.43 3.12 3.12 0 0 0 1.07 2l9.36 9.2a7.38 7.38 0 0 0 1.66 1.22c2.2 1.27 4.58 1.27 5.32 0 .58-1-.09-2.56-1.55-3.79z" fill="#eba87c"/>
    <path style="mix-blend-mode:multiply" fill="#2cd4d9" d="M537.54 551.8l-1.39-7.79-.54.88 1.23 8.11.7-1.2zM565.94 561.88l-.83-8.03-.64.79.85 8.49.62-1.25z"/>
    <ellipse cx="552.12" cy="538.99" rx="5.74" ry="3.31" transform="rotate(-35.37 552.182267 539.0229206)" fill="none" stroke="#dfe9f8" stroke-linecap="round" stroke-miterlimit="10" stroke-width="1.24023"/>
    <path d="M556.51 538.45v-9.4h-8.75v12.83c.08 2.8 7.46.29 8.75-3.43z" fill="#b7835f"/>
    <path d="M547.77 535.25v-4.62l8.72-.14V533c-1.25 2.19-3.42 3.2-7.31 2.56a14.1 14.1 0 0 1-1.41-.31z" style="mix-blend-mode:multiply" fill="#b7835f"/>
    <path d="M558.6 529.33a1.72 1.72 0 0 0-1.32-2 .13.13 0 0 0-.09 0v-2a5.51 5.51 0 0 0-11-.26l-.11 4.59c-.1 4.11 2.1 4.9 4.84 5a6 6 0 0 0 5.78-4 1.69 1.69 0 0 0 1.9-1.33z" fill="#eba87c"/>
    <path d="M547.46 542.31c1.06 1.49 4 1.21 6.6-.62 1.94-1.38 3.12-3.24 3.14-4.71" fill="none" stroke="#dfe9f8" stroke-linecap="round" stroke-miterlimit="10" stroke-width="1.24023"/>
    <ellipse cx="554.07" cy="520.19" rx=".23" ry=".4" transform="rotate(-60 554.0768373 520.1907665)" fill="#120667"/>
    <path d="M555.71 529.42c-.36.21-.66 0-.66-.5V527a1.58 1.58 0 0 1 .66-1.26c.36-.21.66 0 .66.5v1.91a1.58 1.58 0 0 1-.66 1.27z" fill="#5333ed"/>
    <path d="M551.86 519.78a5.5 5.5 0 0 0-5.27 3.43l-4.27 2.46a2.55 2.55 0 0 1 2.47.28 4 4 0 0 1 .47.32l.09.07 2.42 2.1c1.31 1 3.22.9 5.22-.26l3.22-1.86 1-.52v-.54a5.45 5.45 0 0 0-5.35-5.48z" fill="#2cd4d9"/>
    <path d="M557.19 527.31a1.44 1.44 0 0 0-.83.87l-.5-.24.14-1.47 1.23-.71z" fill="#5333ed"/>
    <path fill="none" stroke="#2cd4d9" stroke-miterlimit="10" stroke-width="2" d="M202.99 647.97l58.25 33.63V513.73l-58.25-33.63v167.87z"/>
    <g>
      <path fill="#0c022f" d="M466.75 252.92l-5.52-.64-.81-7.85 5.68 2.14.65 6.35z"/>
      <ellipse cx="463.26" cy="245.39" rx="1.79" ry="3.11" transform="rotate(-60 463.2620488 245.3865943)" fill="#2cd4d9"/>
      <path d="M466.77 255.23v-2.05a2.23 2.23 0 0 0-1.34-2l-.62-.27a2.74 2.74 0 0 0-3 .5 52.64 52.64 0 0 0-4.53 4.92c-.73.89-1.24 1.6-1.67 2.08a1.46 1.46 0 0 0 .37 2.25l.52.3a1.47 1.47 0 0 0 1.46 0l8.25-4.76a1 1 0 0 0 .56-.97zM477.37 259.27l-5.52-.64-.81-7.85 5.67 2.15.66 6.34z" fill="#0c022f"/>
      <ellipse cx="473.88" cy="251.73" rx="1.79" ry="3.11" transform="rotate(-60 473.879783 251.7361391)" fill="#2cd4d9"/>
      <path d="M473.25 226.7c-.92-2.31-6.31-3.29-6.31-3.29l4.82 27.12a2.94 2.94 0 0 0 1.49 2.06c1.05.55 2.14.59 2.49 0a.79.79 0 0 0 .09-.4s-.64-20.65-2.58-25.49zM462.74 220.52c-.92-2.31-6.31-3.29-6.31-3.29l4.82 27.12a2.94 2.94 0 0 0 1.49 2.06c1.05.55 2.14.59 2.49 0a.79.79 0 0 0 .09-.4s-.65-20.65-2.58-25.49z" fill="#9e684d"/>
      <path d="M477.39 261.58v-2.05a2.23 2.23 0 0 0-1.34-2l-.62-.27a2.74 2.74 0 0 0-3 .5 52.64 52.64 0 0 0-4.53 4.92c-.73.89-1.24 1.6-1.67 2.08a1.46 1.46 0 0 0 .37 2.25l.52.3a1.47 1.47 0 0 0 1.46 0l8.25-4.76a1 1 0 0 0 .56-.97z" fill="#0c022f"/>
      <g style="mix-blend-mode:multiply">
        <path d="M466.94 223.41l.93 5.24a22.09 22.09 0 0 0 6.13 1 16.62 16.62 0 0 0-.75-2.93c-.92-2.33-6.31-3.31-6.31-3.31zM456.43 217.23l1 5.85a30.44 30.44 0 0 0 4.08 2.83c.82.48 1.65.89 2.49 1.28a31.55 31.55 0 0 0-1.3-6.66c-.89-2.32-6.27-3.3-6.27-3.3z" fill="#b7835f"/>
      </g>
      <path d="M483.66 220.11a10.54 10.54 0 0 0-.48-2.16c-1.35-5.67-4.12-15.08-5.7-20.37a59.73 59.73 0 0 1-1.75-7.55 163.11 163.11 0 0 0-4.07-19.3s-3.24 6-11 1.51c-3.19-1.84-6.31-6.34-6.31-6.34-4.13 5.29-3.86 24.9-3.86 24.9a172.59 172.59 0 0 1-.19 17.56q0 .51-.07 1c0 3.23 2 7 5.33 10.33a29.94 29.94 0 0 0 6.12 4.65c8.78 5.07 18.28 5.07 21.2 0a6.93 6.93 0 0 0 .78-4.23z" fill="url(#H)"/>
      <path d="M461.55 150.89c.86-1.22-.16-3.43-2.28-4.92s-4.54-1.71-5.4-.49c0 0-5.51 10.25-25.38 18.6a1 1 0 0 0-.39.31c-.49.69.09 1.94 1.29 2.79a3 3 0 0 0 2.64.6s21.43-7.23 29.52-16.89z" fill="#2cd4d9"/>
      <path d="M410.7 173.82l-1.55 1.44c.93.28 1.83-.72 1.83-.72l2.22-1a18.58 18.58 0 0 0 6.37-2.73 2.2 2.2 0 0 0 .85-1.56 1.2 1.2 0 0 0-1.1-1.48.66.66 0 0 0-.31 0l-7.29 1.7-3.48 1-2.16 1.17a3.13 3.13 0 0 0 2.32-.31l2.77-.6-2.51 1-2.1 1.79a3.53 3.53 0 0 0 2.54-1l2.48-.7-2.36 1.05-2.22 1.25a2.91 2.91 0 0 0 2.57-.44l3.35-1.08z" fill="#9e684d"/>
      <path d="M429.68 163.9L419 167.68a4.78 4.78 0 0 0-.64.24 12.74 12.74 0 0 0-3.64 0 16.72 16.72 0 0 0-2.32 1.88l-.83 1.36a2.89 2.89 0 0 0 2.07-1.15l.75-.33a4.35 4.35 0 0 0 2.27 1.76 2.6 2.6 0 0 0 1.88.1l10.6-2.68a6.15 6.15 0 0 0 1.61-.61c1.86-1 2.89-2.71 2.3-3.79-.46-.88-1.86-1.07-3.37-.56z" fill="#b7835f"/>
      <path d="M472.56 151.27l-13.32-7.68a2.54 2.54 0 0 0-1.81-.28 5.75 5.75 0 0 0-3.49 2 3 3 0 0 0-.57 2l.9 17.78c-.23 2.55 2.09 5.87 5.87 8.06 4.52 2.61 9.4 2.61 10.91 0a3.43 3.43 0 0 0 .44-1.74l3.19-17c.25-.93-.62-2.27-2.12-3.14z" fill="#2cd4d9"/>
      <g>
        <path d="M476 198l1.52-10.8v-.07a2.58 2.58 0 0 0-4.61 0l-.82 9.94c-.5 2.21-1.81 8-1.87 8.2s-.84 4.16-.84 4.16l.34 2.58c1-.71.63-2.25.63-2.25l.8-3.23-.33 3.43 1 3a3.09 3.09 0 0 0 0-3l.68-3.21-.27 3.4.34 2.83a3.36 3.36 0 0 0 .75-3.13l.69-4v3.63l1.11 1.71a3.1 3.1 0 0 0-.31-2.2l.35-3a21.79 21.79 0 0 0 .83-8.09z" fill="#b7835f"/>
        <path d="M474.54 153.28c-.75-1.3-3.18-1.3-5.42 0s-3.46 3.4-2.71 4.7c0 0 7 9.31 6.21 30.84a1 1 0 0 0 .11.49c.42.74 1.8.74 3.07 0a3 3 0 0 0 1.65-2.15s2.46-22.48-2.91-33.88z" fill="#2cd4d9"/>
      </g>
      <g>
        <path d="M474.75 145.49a25 25 0 0 1-3.54-9.23l-9.77-3.57-5.56 1.22a10.81 10.81 0 0 1-3.58 7c-1.31 1-1.95 2.34-1.44 3.22a2.24 2.24 0 0 0 2.46.68 1.39 1.39 0 0 0 .16.86c.59 1 2.49 1 4.25 0a6.1 6.1 0 0 0 .93-.67z" fill="#5333ed"/>
        <path d="M457.48 136.89a7.81 7.81 0 0 1-1.4.28s-1.17 4.14-3.31 5.45c0 0 .86 3 5.34 2.75l1.55-3.41z" fill="url(#I)"/>
        <ellipse cx="464.25" cy="150.32" rx="3.68" ry="2.13" transform="rotate(-30 464.2435684 150.3136892)" fill="#eba87c"/>
        <path d="M467.61 144l-6.72 2.35v5.08a1.35 1.35 0 0 0 .16.72c.59 1 2.49 1 4.25 0 1.46-.84 2.34-2.11 2.28-3.1z" fill="#9e684d"/>
        <path d="M467.59 146.8c.06 1-.82 2.26-2.28 3.1-1.76 1-3.66 1-4.25 0a1.34 1.34 0 0 1-.16-.68v2.21a1.36 1.36 0 0 0 .17.72c.59 1 2.49 1 4.25 0 1.46-.84 2.36-2.11 2.29-3.1v-2.25z" fill="#2cd4d9"/>
        <path d="M467.59 146.8c.06 1-.82 2.26-2.28 3.1-1.76 1-3.66 1-4.25 0a1.34 1.34 0 0 1-.16-.68v2.21a1.36 1.36 0 0 0 .17.72c.59 1 2.49 1 4.25 0 1.46-.84 2.36-2.11 2.29-3.1v-2.25z" style="mix-blend-mode:multiply" fill="#2cd4d9"/>
        <path d="M467.61 139.88l-6.72 2.35v5.08a1.35 1.35 0 0 0 .16.72c.59 1 2.49 1 4.25 0 1.46-.84 2.34-2.11 2.28-3.1z" style="mix-blend-mode:multiply" fill="#b7835f"/>
        <path d="M458.54 146.39c1 1.76 4.31 1.76 7.36 0a7.82 7.82 0 0 0 3.91-4.54c.06-.3-.71-.4-.73-.67a3.21 3.21 0 0 1 .5-1.16c-1-1.76-4.31-1.76-7.36 0s-4.7 4.61-3.68 6.37z" fill="#b7835f"/>
        <path d="M469.72 133h-12.34s-1.19 8.25 1.06 13.2l10.64-5.11z" fill="#b7835f"/>
        <path d="M472.93 143.74a4.65 4.65 0 0 0-2.63-.68l-.11-5.12a2.27 2.27 0 0 0 .74-.73c1-1.75-.63-4.6-3.67-6.35s-6.32-1.75-7.33 0v.05a4.2 4.2 0 0 0-2.16.61c-1.39.8-2.14 2.08-1.75 2.91a2.23 2.23 0 0 0 .08 2c.48.82 1.27.7 2.7-.13a3.93 3.93 0 0 0 1.75-1.86 9.39 9.39 0 0 0 3.07 2.77 8.5 8.5 0 0 0 4.17 1.29c0 .68.3 5.49-2.68 7-1.68 1-2.58 2.61-2 3.6s2 1 3.59.33a1.27 1.27 0 0 0 .11.31c.59 1 2.49 1 4.25 0a5.26 5.26 0 0 0 2-1.87 1.88 1.88 0 0 0 1.9-.68c.48-.98-.4-2.51-2.03-3.45z" fill="#5333ed"/>
        <path d="M469.29 139.12a3.3 3.3 0 0 1-1.09 2.78c-.74.59-1.46.31-1.6-.63a3.3 3.3 0 0 1 1.09-2.78c.74-.59 1.46-.31 1.6.63z" fill="#b7835f"/>
      </g>
      <path d="M452.49 158.27l1.39-.89-.3-5.86-.63 1.4s.05 3.95-.46 5.35zM468.28 163.36a31.47 31.47 0 0 1 2.4 10.35 3.11 3.11 0 0 0 .8-1.77 55.06 55.06 0 0 0-2.35-8.49z" style="mix-blend-mode:multiply" fill="#2cd4d9"/>
    </g>
    <g>
      <path fill="#fff" d="M427.41 141.97l-48.27-27.87-.01 7.77v48.75l48.28 27.87 11.01 6.36.01-44.14V148.33l-11.02-6.36z"/>
      <g data-name="&lt;Group&gt;" opacity=".5">
        <path data-name="&lt;Path&gt;" fill="#dfe9f8" d="M427.41 149.74v48.75l-48.28-27.87v-48.75l48.28 27.87z"/>
        <path data-name="&lt;Path&gt;" fill="#fff" d="M379.13 121.87l.01-7.77 48.27 27.87v7.77l-48.28-27.87z"/>
        <path data-name="&lt;Path&gt;" fill="#120667" d="M427.41 141.97l11.02 6.36v7.77l-11.02-6.36v-7.77z"/>
        <g data-name="&lt;Group&gt;">
          <path data-name="&lt;Path&gt;" fill="#2cd4d9" d="M427.41 149.74l11.02 6.36v4.61l-11.02-6.36v-4.61z"/>
          <path data-name="&lt;Path&gt;" fill="#120667" d="M438.43 160.71l-.01 44.14-11.01-6.36v-44.14l11.02 6.36z"/>
        </g>
        <path data-name="&lt;Path&gt;" fill="#2cd4d9" d="M429.67 146.83l6.3 3.64v1.33l-6.3-3.64v-1.33z"/>
      </g>
    </g>
    <g>
      <path d="M488.31 187.92s.21 4.94 2.9 8c0 0 .84 1 .56 1.8a8.74 8.74 0 0 1-2 2.21 29.73 29.73 0 0 0-4.62 3.81s-1.07 1-.6 3.34 1.22 2.84 1.22 2.84a1.3 1.3 0 0 0 1.63 0 4.65 4.65 0 0 1 1.12-3.94c1.6-1.5 3.61-2.9 4.66-3.83 1.34-1.19 6.06-4.6 6.35-7.17l.69 1.28a1.51 1.51 0 0 0 1.78.74 1.84 1.84 0 0 0 .93-1s1.67-2.84.14-9.76z" fill="#120667"/>
      <ellipse cx="500.35" cy="299.71" rx="1.35" ry="2.34" transform="rotate(-60 500.3500347 299.7083183)" fill="#0c022f"/>
      <path d="M507.7 303.66l2.34.86a2.23 2.23 0 0 0 1.11-2.18l-.06-.59a2.81 2.81 0 0 0-1.85-2.38c-1.64-.55-3.21.37-6.19-.06-.84-.12-3.42-1.92-4.17-.77a1.74 1.74 0 0 0 .46 2.12 24 24 0 0 0 2.69 1.71 7.63 7.63 0 0 0 2.7.85c.78.11 1.81.26 2.97.44z" fill="#0c022f"/>
      <ellipse cx="509.06" cy="305.32" rx="1.18" ry="2.05" transform="rotate(-60 509.0547374 305.311331)" fill="#0c022f"/>
      <ellipse cx="509.06" cy="303.18" rx="1.18" ry="2.05" transform="rotate(-60 509.0530902 303.174184)" fill="#0c022f"/>
      <path fill="#0c022f" d="M510.93 305.98v-2.11l-3.74-1.31v2.06l3.74 1.36z"/>
      <path d="M506.46 299.3a24.78 24.78 0 0 1-3.09.05 2.93 2.93 0 0 1-1.19-.35c-.72-.34-1.12.64-.9.92s1.21 1.22 5.18 1z" fill="#ffc398"/>
      <ellipse cx="502.05" cy="299.71" rx=".7" ry="1.21" transform="rotate(-60 502.0567523 299.7121967)" fill="#ffc398"/>
      <ellipse cx="486.36" cy="307.01" rx="1.35" ry="2.34" transform="rotate(-60 486.3547996 307.0087767)" fill="#0c022f"/>
      <path d="M493.7 311l2.34.86a2.23 2.23 0 0 0 1.11-2.18l-.06-.59a2.81 2.81 0 0 0-1.85-2.38c-1.64-.55-3.21.37-6.19-.06-.84-.12-3.42-1.92-4.17-.77a1.74 1.74 0 0 0 .46 2.12 24 24 0 0 0 2.69 1.71 7.63 7.63 0 0 0 2.7.85c.78.06 1.82.22 2.97.44z" fill="#0c022f"/>
      <ellipse cx="495.06" cy="312.62" rx="1.18" ry="2.05" transform="rotate(-60 495.0595022 312.6117894)" fill="#0c022f"/>
      <ellipse cx="495.06" cy="310.48" rx="1.18" ry="2.05" transform="rotate(-60 495.057855 310.4746424)" fill="#0c022f"/>
      <path fill="#0c022f" d="M496.93 313.28v-2.11l-3.74-1.31v2.06l3.74 1.36z"/>
      <path d="M492.47 306.59a24.78 24.78 0 0 1-3.09.05 2.93 2.93 0 0 1-1.19-.35c-.72-.34-1.12.64-.9.92s1.21 1.22 5.18 1z" fill="#ffc398"/>
      <path d="M485.35 247.32c1.31 10.79 4.72 40.21 5.35 60l7.47-3s.61-53 .63-54.08c0 0 5.78 27.84 5.39 50.35l7.24-2.81s-1-45.45-3.79-61a22.45 22.45 0 0 0-2.12-6.24l-2.35-4.6-17.11 7.06-.71 5.92a34.92 34.92 0 0 0 0 8.4z" fill="#2cd4d9"/>
      <ellipse cx="494.77" cy="230.49" rx="9.57" ry="5.53" transform="rotate(-30 494.7602289 230.4906038)" fill="#2cd4d9"/>
      <ellipse cx="494.46" cy="306.02" rx="4.11" ry="2.37" transform="rotate(-30 494.4645021 306.011364)" fill="#2cd4d9"/>
      <ellipse cx="507.83" cy="299.31" rx="3.97" ry="2.29" transform="rotate(-30 507.820129 299.3099935)" fill="#2cd4d9"/>
      <path d="M469.07 226.2l-1.76 1.17c.87.43 1.92-.41 1.92-.41l2.35-.65a18.58 18.58 0 0 0 6.73-1.66 2.2 2.2 0 0 0 1.1-1.4 1.2 1.2 0 0 0-.84-1.64.66.66 0 0 0-.31 0l-7.47.49-3.59.38-2.32.8a3.13 3.13 0 0 0 2.34.07l2.83-.14-2.64.62-2.36 1.42a3.53 3.53 0 0 0 2.67-.57l2.56-.28-2.5.65-2.45.85a2.91 2.91 0 0 0 2.6 0l3.48-.52z" fill="#eba87c"/>
      <path d="M489.41 219.5l-11.14 2a4.78 4.78 0 0 0-.67.13 20.65 20.65 0 0 0-3.55-.78c-.58 0-2.88-.12-2.88-.12l-1.62.42s.54.65 1.88.31l2 1.1s.6 2.22 3.78 2.67l10.89-.92a6.15 6.15 0 0 0 1.69-.34c2-.7 3.29-2.2 2.89-3.36-.34-.96-1.68-1.37-3.27-1.11z" fill="#ffc398"/>
      <path d="M487.5 204.4l13.32-7.68a2.54 2.54 0 0 1 1.81-.28 5.75 5.75 0 0 1 3.49 2 3 3 0 0 1 .57 2l-.9 17.78c.23 2.55-2.09 5.87-5.87 8.06-4.52 2.61-9.4 2.61-10.91 0a3.43 3.43 0 0 1-.44-1.74l-3.19-17c-.26-.94.62-2.28 2.12-3.14z" fill="#dfe9f8"/>
      <path d="M472.07 230.19l9.22 4.53h.07a2.43 2.43 0 0 0 1.33-4.13l-8.69-3.66a46.13 46.13 0 0 0-3.92-5.15s-.45.2-.29.8c0 .06.41.7.36.75a26 26 0 0 1-3.44 2.6 18.17 18.17 0 0 0 5.31 4.26z" fill="#ffc398"/>
      <path d="M470.38 223.46s-2.85 2.41-3.63 2.47l-1.29-1.58a1.49 1.49 0 0 1-1.39-.59l1.69-.25.91.59-.84-1.17-.66.23s-.2-.53.22-.76a4.14 4.14 0 0 1 .53-.14.24.24 0 0 1 .22-.3 1.43 1.43 0 0 1 .68 0 7 7 0 0 1 1.16.79l-.57-1a.46.46 0 0 1 .3-.58c.44-.17.75.33.75.33z" fill="#ffc398"/>
      <path d="M495.33 219.42a42 42 0 0 0-1.18-14.82c-.54-1.4-2.93-1.78-5.36-.86-2.26.87-3.72 2.56-3.47 3.92a13.14 13.14 0 0 0 .68 6.06c1.14 3.53.8 1.46 1.14 3.41a1.61 1.61 0 0 1 .08.26 3.11 3.11 0 0 1-.05 1.36c-.25 1 .75 6.83 1 7.58s-1 2.27-1 2.27a7.33 7.33 0 0 1-3.76.9c-2.31-.07-3.11-.92-4.57-1.67a3.25 3.25 0 0 0-2.69-.19l-2-.83a2.68 2.68 0 0 0-2.15.37c-1.08.62-1.67 1.64-1.31 2.26a.81.81 0 0 0 .26.26h.08l.14.07 2.83 1.34c-.81 3.59 3.77 3.72 4.18 3.7a12.75 12.75 0 0 1 6 1.08c2.71 1.29 6.52-.08 7.27-1.33s2.48-2.4 3.69-5.08.19-10.06.19-10.06z" fill="#dfe9f8"/>
      <path d="M488.25 219.42a10.51 10.51 0 0 1-1.7.23c-.75 0-4.89.11-5.86 1.31l-2.42.38c-.59 0-1.24.7-1.51 1.7s0 2.13.62 2.3a.71.71 0 0 0 .25 0l2.84-.15s.7.88 3.27 1 3.66-1.25 4.73-1.34zM507.89 210.54a17.7 17.7 0 0 0 .8-4.46c-.06-2-.84-7.41-2.07-9-.6-1.37-3-1.64-5.39-.59s-3.81 3-3.21 4.37a51.39 51.39 0 0 1 2.16 19.46v1.15a1 1 0 0 0 .06.5c.34.78 1.71.93 3.06.34a3 3 0 0 0 1.88-2 24 24 0 0 0 .9-2.26c1.29-1.3 2.13-2.36 2-3.42a31.61 31.61 0 0 1-.19-4.09z" fill="#dfe9f8"/>
      <path d="M480.47 225.21a5 5 0 0 1 0-2.36l-.64.33a5.69 5.69 0 0 0-.16 2.07zM474 231.13a4.7 4.7 0 0 1 1.1-2.07l-.82-.34a3.43 3.43 0 0 0-1.12 2zM496.23 215.14s-.22 3-.22 4.12c0 .57.88 6.6.2 8.58l-.71.17a34 34 0 0 0-.15-8.6s.19-2.3.18-3.89zM506.24 209.93l.46-.44s-.32 7.53-.2 8.26c0 0-.32.23-.37.38l-.35.94s.38-7.52.46-9.14z" style="mix-blend-mode:multiply" fill="#dfe9f8"/>
      <path d="M499.8 242.55l-1 7.71.27 1.38a97.54 97.54 0 0 0 2.1-11.15 9.71 9.71 0 0 1-1.37 2.06z" style="mix-blend-mode:multiply" fill="#2cd4d9"/>
      <ellipse cx="488.06" cy="307.01" rx=".7" ry="1.21" transform="rotate(-60 488.0528569 307.007655)" fill="#ffc398"/>
      <path style="mix-blend-mode:multiply" fill="#2cd4d9" d="M495.97 307.87l.54-49.17v48.78l-.54.39zM509.93 300.63l-2.1-46.98 2.63 46.48-.53.5z"/>
      <g fill="#ffc398">
        <ellipse cx="498.8" cy="198.86" rx="2.84" ry="1.64" transform="rotate(-30 498.7976525 198.8524282)"/>
        <ellipse cx="498.8" cy="193.92" rx="2.84" ry="1.64" transform="rotate(-30 498.7960757 193.9320057)"/>
        <path d="M496.2 194.92v4.92l5.19-1.95v-4.95l-5.19 1.98z"/>
      </g>
      <circle cx="495.69" cy="187.05" r="7.43" fill="#120667"/>
      <path d="M496 200c.5.87 2.12.87 3.63 0s2.31-2.27 1.81-3.14" fill="none" stroke="#6e7075" stroke-miterlimit="10" stroke-width="1.1057451"/>
      <path d="M499.49 195s0 7.19-10.24 8.79a6.12 6.12 0 0 0-1.77.61s4.33-7.67 8.07-10.43c.66-.48 4.38-1 5-1.35.88-.52-1.77 2.32-1.06 2.38z" fill="#120667"/>
      <path d="M499 195.65s1.22 2 2.78 1.41a2.6 2.6 0 0 0 1.51-1.83c.08-.26-.14-3.89-.83-4s-3.74 2.77-3.46 4.42z" fill="#120667"/>
    </g>
    <g>
      <ellipse cx="159.69" cy="623.81" rx="6.68" ry="11.57" transform="rotate(-60 159.698297 623.8144356)" fill="#ffc398"/>
      <path d="M150.34 689.11a1.42 1.42 0 0 0 .5 0c.09-.06.7-.06.83.36a3.33 3.33 0 0 1 .13 1.16 3.68 3.68 0 0 1-1 2.35c-.76.91-4.84 4-7.39 4.66a3.24 3.24 0 0 0-1.25.58 7.54 7.54 0 0 1-1.73 1.13l-.53-1.35 8.53-5.42 2-2z" fill="#0c022f"/>
      <ellipse cx="139.53" cy="697.77" rx="3.09" ry="1.79" transform="rotate(-30 139.5336472 697.767928)" fill="#0c022f"/>
      <path d="M138.83 698.78l-1.11-.55c-.23-.13-1.09 0-1.07-.25 0-.51-.09-.5-.15-.93a6.08 6.08 0 0 1-.12-1.46l.08-.71a3.4 3.4 0 0 1 2.24-2.88 38 38 0 0 1 7.22-1.52c1-.15 4.14-2.32 5-.93a2.13 2.13 0 0 1-.56 2.56 22.43 22.43 0 0 1-2.75 2.3 75.65 75.65 0 0 1-8.78 4.37z" fill="#dfe9f8"/>
      <ellipse cx="138.91" cy="697.19" rx="2.47" ry="1.43" transform="rotate(-30 138.9058973 697.199723)" fill="#dfe9f8"/>
      <ellipse cx="139.14" cy="693.14" rx="2.47" ry="1.43" transform="rotate(-30 139.1335063 693.1407107)" fill="#ffc398"/>
      <path d="M147.35 689.86a3.12 3.12 0 0 1 2 .83M146.33 690.34a3.12 3.12 0 0 1 2 .83M144.84 690.63a3.12 3.12 0 0 1 2 .83M143.26 690.86a3.12 3.12 0 0 1 2 .83M141.64 691.17a3.12 3.12 0 0 1 2 .83" fill="none" stroke="#120667" stroke-linecap="round" stroke-miterlimit="10" stroke-width=".5"/>
      <path d="M183 686.68l-2.89 4C169 673 157.73 639.77 157.71 639c0 0-16.51 43.21-16.34 53.16l-4.48 1.94s5.6-54.27 7.23-63.31a27.15 27.15 0 0 1 2.56-7.55l2.84-5.56 20.71 8.56.86 7.16c.25 2.07 8.53 43.6 11.91 53.28z" fill="#ffc398"/>
      <path d="M190.09 680.42s.39-.13.45-.23a.7.7 0 0 1 .9 0 3.33 3.33 0 0 1 .59 1 3.68 3.68 0 0 1 .05 2.56c-.32 1.15-2.76 5.66-4.83 7.28a3.24 3.24 0 0 0-.9 1 7.54 7.54 0 0 1-1.12 1.74l-1-1 5.56-8.44.95-2.65z" fill="#0c022f"/>
      <ellipse cx="183.78" cy="692.75" rx="3.09" ry="1.79" transform="rotate(-54.21 183.7912777 692.7647934)" fill="#0c022f"/>
      <path d="M183.56 694h-1.24c-.27 0-1 .45-1.08.21-.18-.48-.29-.42-.52-.79a6.08 6.08 0 0 1-.71-1.28l-.22-.68a3.4 3.4 0 0 1 .86-3.55 38 38 0 0 1 6-4.35c.87-.55 2.83-3.81 4.21-2.92a2.13 2.13 0 0 1 .54 2.57 22.43 22.43 0 0 1-1.57 3.23 75.65 75.65 0 0 1-6.27 7.56z" fill="#dfe9f8"/>
      <ellipse cx="182.98" cy="692.48" rx="2.47" ry="1.43" transform="rotate(-54.21 182.9840836 692.4872497)" fill="#dfe9f8"/>
      <ellipse cx="181.53" cy="688.69" rx="2.47" ry="1.43" transform="rotate(-54.21 181.532676 688.6993674)" fill="#ffc398"/>
      <path d="M187.67 682.33a3.12 3.12 0 0 1 2.18-.08M186.94 683.19a3.12 3.12 0 0 1 2.18-.08M185.7 684.07a3.12 3.12 0 0 1 2.18-.08M184.36 684.92a3.12 3.12 0 0 1 2.18-.08M183 685.87a3.12 3.12 0 0 1 2.18-.08" fill="none" stroke="#120667" stroke-linecap="round" stroke-miterlimit="10" stroke-width=".5"/>
      <path d="M178.75 661s-6.53-20.81-7.37-27.5c-1.1-8.78-1.67-9.15-1.67-9.15a15.57 15.57 0 0 0-6.65-6.9c-5.54-3.2-11.52-3.2-13.37 0 0 0-1.65 2.66-2.17 3.56a30.35 30.35 0 0 0-3.25 9.18c-3 14.38-5.24 26.25-5.24 26.25-1.1 1.9.68 5 4 6.89s6.85 1.9 8 0a2.41 2.41 0 0 0 .29-.9l6-22.18 9.15 26.75a2.41 2.41 0 0 0 .29.85c1.1 1.91 4.68 1.91 8 0s5.09-4.98 3.99-6.85z" fill="#2cd4d9"/>
      <ellipse cx="184.17" cy="637.86" rx="3.63" ry="2.1" transform="rotate(-30 184.1641502 637.8666353)" fill="none" stroke="#120667" stroke-miterlimit="10"/>
      <ellipse cx="185.94" cy="639.68" rx="3.63" ry="2.1" transform="rotate(-30 185.9377589 639.6818723)" fill="none" stroke="#2cd4d9" stroke-miterlimit="10"/>
      <path d="M134.54 639.5l-1.29 1.78c-.41-.92.51-2 .51-2l.77-2.42a19.34 19.34 0 0 1 2-6.93 2.29 2.29 0 0 1 1.5-1.08 1.25 1.25 0 0 1 1.67.95.69.69 0 0 1 0 .32l-.83 7.75c0 .26-.55 3.72-.55 3.72l-.93 2.38a3.25 3.25 0 0 1 0-2.44l.27-2.94-.76 2.72-1.58 2.4a3.67 3.67 0 0 1 .71-2.76l.4-2.65-.78 2.57-1 2.52a3 3 0 0 1 .13-2.71l.69-3.59z" fill="#eba87c"/>
      <path d="M145.71 595.48l-7.94 20.24-.45 4.09-1.41 11.29c.33 3.33 2.61 4 2.61 4l1.06 2.11c-.41 1.38.24 2 .24 2l.51-1.67v-3a21.49 21.49 0 0 0-.66-3.73 5 5 0 0 0 .16-.69l2.11-9.51.92-4 7.48-15.81z" fill="#ffc398"/>
      <ellipse cx="146.41" cy="601.11" rx="2.95" ry="5.11" transform="rotate(-60 146.4109563 601.1087849)" fill="#5333ed"/>
      <path fill="#5333ed" d="M147.53 592.12l-5.3 6.1 8.76 5.11 4.08-11.99-7.54.78z"/>
      <g fill="#ffc398">
        <path d="M184.7 641.45l-7.1-10.2v-.09a2.94 2.94 0 0 1 4.7-2.34l5.94 9.69a55.78 55.78 0 0 1 6.87 3.74s-.15.57-.91.49a5.62 5.62 0 0 0-1-.29 31.42 31.42 0 0 0-2.48 4.59 22 22 0 0 1-6.06-5.58z"/>
        <path d="M193 642.25s-2.37 3.85-2.3 4.79l2.13 1.26a1.8 1.8 0 0 0 1 1.55v-2.06l-.87-1 1.55.79-.15.83s.67.15.87-.4a5 5 0 0 0 .07-.66.29.29 0 0 0 .32-.32 1.73 1.73 0 0 0-.14-.81 8.42 8.42 0 0 0-1.16-1.24l1.33.5a.55.55 0 0 0 .64-.46c.13-.55-.53-.84-.53-.84z"/>
      </g>
      <path d="M177.6 631.25s-6.74-11.09-7.95-21.42 6.33-.7 6.33-.7 4 15.92 6.32 19.68-4.7 2.44-4.7 2.44z" fill="#ffc398"/>
      <path d="M170.45 597.91l-16.11-9.29a3.07 3.07 0 0 0-2.19-.34 7 7 0 0 0-4.22 2.48 3.59 3.59 0 0 0-.69 2.37l1.09 21.51c-.28 3.09 2.52 7.1 7.1 9.74 5.46 3.15 11.37 3.15 13.19 0a4.15 4.15 0 0 0 .53-2.11l3.86-20.54c.31-1.15-.75-2.73-2.56-3.82z" fill="#5333ed"/>
      <path fill="#5333ed" d="M172.86 600.4l4.19 7.9-9.03 5.21-3.62-9.31 8.46-3.8z"/>
      <ellipse cx="172.53" cy="610.91" rx="5.21" ry="3.01" transform="rotate(-30 172.5275306 610.9086125)" fill="#5333ed"/>
      <path d="M182.79 641.5c.58 1 2.46 1 4.19 0s2.68-2.63 2.1-3.63" fill="none" stroke="#2cd4d9" stroke-miterlimit="10"/>
      <path d="M181 639.68c.58 1 2.46 1 4.19 0s2.68-2.63 2.1-3.63" fill="none" stroke="#120667" stroke-miterlimit="10"/>
      <path d="M157.28 640.17s-2.71-3.14-3.15-6.48l-.87-.31a15.9 15.9 0 0 0 3.6 8.35z" style="mix-blend-mode:multiply" fill="#2cd4d9"/>
      <path style="mix-blend-mode:multiply" fill="#5333ed" d="M146.81 604.47v-8.28l.91 1.05.1 7.44-1.01-.21zM170.64 614.59s-2 .19-2.62-1.08l-1.4-3.6-.93-.64s1 3.86 1.54 5.09c.71 1.6 3.17 1.46 3.17 1.46z"/>
      <g fill="#120667">
        <circle cx="164.45" cy="579.7" r="8.99"/>
        <circle cx="148.87" cy="590.99" r="5.49"/>
        <circle cx="171.78" cy="595.36" r="3.34"/>
        <circle cx="151.31" cy="595.48" r="4.78"/>
        <circle cx="152.81" cy="585.92" r="4.78"/>
        <circle cx="152.34" cy="599.27" r="3.47"/>
        <circle cx="164.7" cy="598.64" r="5.83"/>
        <circle cx="157.59" cy="594.77" r="7.98"/>
        <path d="M147.49 585.68s4-.57 9.15-10.42l15 9.85s-1.81 4.58 1 7-5.7 5.13-5.7 5.13L152 592.8z"/>
      </g>
    </g>
    <g>
      <path d="M669.44 409v-2.6a2.79 2.79 0 0 1 1.68-2.56l.78-.34a3.43 3.43 0 0 1 3.7.63 65.88 65.88 0 0 1 5.68 6.16c.92 1.11 1.55 2 2.09 2.6a1.83 1.83 0 0 1-.46 2.82l-.66.37a1.83 1.83 0 0 1-1.82 0l-10.33-6a1.31 1.31 0 0 1-.66-1.08z" fill="#dfe9f8"/>
      <path d="M683 414.48a1.83 1.83 0 0 1-.89 1.23l-.66.37a1.83 1.83 0 0 1-1.82 0l-9.91-5.72" fill="none" stroke="#fff" stroke-linecap="round" stroke-miterlimit="10" stroke-width="1.6346833"/>
      <path d="M670.38 398.25l5.21-2 .06 7.4c.21.79-.5 1.9-1.74 2.62s-2.84.79-3.3 0a1 1 0 0 1-.12-.53z" fill="#724c3b"/>
      <ellipse cx="674.26" cy="405.46" rx="2.32" ry="1.34" transform="rotate(-30 674.2606443 405.4475951)" fill="#dfe9f8"/>
      <path d="M676.72 404.91a3.28 3.28 0 0 0-1.7.48c-1.11.64-1.71 1.68-1.34 2.32M677.95 406.46a3.16 3.16 0 0 0-1.64.46c-1.07.62-1.65 1.62-1.29 2.24M679.31 408a2.94 2.94 0 0 0-1.52.43c-1 .58-1.53 1.51-1.2 2.08M677.29 405.66a3.16 3.16 0 0 0-1.64.46c-1.07.62-1.65 1.62-1.29 2.24M678.66 407.24a2.94 2.94 0 0 0-1.52.43c-1 .58-1.53 1.51-1.2 2.08" fill="none" stroke="#120667" stroke-linecap="round" stroke-miterlimit="10" stroke-width=".4752491"/>
      <path fill="none" stroke="#fff" stroke-linecap="round" stroke-miterlimit="10" stroke-width="1.6346833" d="M683.9 414.65l-2.13 1.24"/>
      <path d="M680.11 402.39v-2.57a2.79 2.79 0 0 1 1.68-2.56l.78-.34a3.43 3.43 0 0 1 3.7.63 65.88 65.88 0 0 1 5.68 6.16c.92 1.11 1.55 2 2.09 2.6a1.83 1.83 0 0 1-.46 2.82l-.66.37a1.83 1.83 0 0 1-1.82 0l-10.33-6a1.31 1.31 0 0 1-.66-1.11z" fill="#dfe9f8"/>
      <path d="M693.64 407.9a1.83 1.83 0 0 1-.89 1.23l-.66.37a1.83 1.83 0 0 1-1.82 0l-9.91-5.72" fill="none" stroke="#fff" stroke-linecap="round" stroke-miterlimit="10" stroke-width="1.6346833"/>
      <path d="M680.89 391.76l5.21-2 .22 7.3c.21.79-.5 1.9-1.74 2.62s-2.84.79-3.3 0a1 1 0 0 1-.12-.53z" fill="#724c3b"/>
      <ellipse cx="684.93" cy="398.87" rx="2.32" ry="1.34" transform="rotate(-30 684.9244574 398.8649552)" fill="#dfe9f8"/>
      <path d="M687.39 398.33a3.28 3.28 0 0 0-1.7.48c-1.11.64-1.71 1.68-1.34 2.32M688.62 399.87a3.16 3.16 0 0 0-1.64.46c-1.07.62-1.65 1.62-1.29 2.24M690 401.45a2.94 2.94 0 0 0-1.52.43c-1 .58-1.53 1.51-1.2 2.08M688 399.07a3.16 3.16 0 0 0-1.64.46c-1.07.62-1.65 1.62-1.29 2.24M689.33 400.65a2.94 2.94 0 0 0-1.52.43c-1 .58-1.53 1.51-1.2 2.08" fill="none" stroke="#120667" stroke-linecap="round" stroke-miterlimit="10" stroke-width=".4752491"/>
      <path fill="none" stroke="#fff" stroke-linecap="round" stroke-miterlimit="10" stroke-width="1.6346833" d="M694.57 408.07l-2.13 1.23"/>
      <path d="M680.1 393.84l-.08-1.38c-.1-1 .75-2.39 2.21-3.34 1.78-1.17 3.77-1.28 4.45-.25a1.52 1.52 0 0 1 .19 1.06l.07 1.32a4.24 4.24 0 0 1-2.21 3.27c-1.78 1.17-3.77 1.28-4.45.25a1.35 1.35 0 0 1-.19-.48v-.15a1.69 1.69 0 0 1 .01-.3zM669.49 399.33c-.09-1 .75-2.38 2.21-3.33 1.78-1.17 3.77-1.28 4.45-.25a1.45 1.45 0 0 1 .22.87l.08 1.42c.11 1-.74 2.4-2.2 3.36-1.78 1.17-3.77 1.28-4.45.25a1.39 1.39 0 0 1-.2-.64z" fill="#2cd4d9"/>
      <path d="M668.43 373.26c-.29-6-.82-20.33-.73-22.63.13-3.74.62-12.75 1.54-16.44v-.1c.15-3.36 3-7.52 7.54-10.51 6-4 12-3.68 15.06-.85 1.8 1.67-1.72 22.22-2.72 40.27-.82 14.8-2.7 22.75-2.91 25.71.59.89-.19 2.44-1.74 3.45s-3.28 1.11-3.86.22a1.18 1.18 0 0 1-.16-.44v-.08a1.53 1.53 0 0 1 0-.36c0-3-.26-19.84-.16-26.14s1.39-16 1.64-17.89a197.27 197.27 0 0 0-3.3 21.92v.15a2.51 2.51 0 0 1 0 .46c-.9 11.77-3.28 22.89-2.74 25.81.29.91-.47 2.25-1.87 3.17-1.55 1-3.28 1.11-3.86.22a1.23 1.23 0 0 1-.18-.65s-1.26-19.29-1.55-25.29z" fill="#120667"/>
      <path d="M668 339.62l2-4.23c2.37 1.16 8.56 4.17 8.81 4.28s.45 1.76.45 1.76l-.83 1.44-1.89.74-.65 1.17a25.36 25.36 0 0 1-7.95-5.14z" fill="#724c3b"/>
      <path d="M719.86 306c-2.13-1.58-5 1.84-8.49 4.18a39.45 39.45 0 0 1-5.56 3.45c-3.81 1.45-10-4.51-12.81-19.91l-.05-.21v-.27a3.23 3.23 0 0 0-.25-.56l-.08-.12c0-.07-.08-.15-.14-.22l-.16-.18a6.18 6.18 0 0 0-3.81-2.18h-.54a3.7 3.7 0 0 0-.57 0h-.25l-.26.09-.27.1a6.38 6.38 0 0 0-1.16.64l-14.66 8.46c-5.47 3.25-18.76 12.59-17.75 23s15.35 17.9 15.35 17.9 5-.34 4.59-2.91c-.07-.4-.74-1-1-1.27C653.7 321.24 669.6 315 669.6 315c.1 3.42.85 15.18.85 15.18a8.81 8.81 0 0 0 2.12 5.6c2.86 2 7.59 2.55 12.85-.49 4.4-2.54 7.1-6.41 6.83-9.38l.22-9.05c3.6 4.52 8.14 7.27 13.65 5.07.93-.22 10.91-8.52 12-9.38 4.47-3.55 3.52-5.21 1.74-6.55z" fill="url(#J)"/>
      <ellipse cx="680.09" cy="297.92" rx="2.47" ry="4.28" transform="rotate(-54.63 680.0450052 297.9259263)" fill="none" stroke="#2cd4d9" stroke-linecap="round" stroke-miterlimit="10" stroke-width=".9245226"/>
      <g>
        <path d="M730 300.45l2.48-.7c-.3 1.14-1.91 1.45-1.91 1.45l-2.47 1.67a22.7 22.7 0 0 1-6.9 4.91 2.69 2.69 0 0 1-2.17-.1 1.46 1.46 0 0 1-.84-2.09.81.81 0 0 1 .23-.3l6.41-6.52c.21-.22 3.21-3 3.21-3l2.59-1.51c-.14 1.26-1.8 2.22-1.8 2.22l-2.39 2.52 2.68-2 3.2-1.05a4.31 4.31 0 0 1-2.66 2l-2.3 2.15 2.59-1.79 2.74-1.59a3.56 3.56 0 0 1-2.09 2.4l-3.25 2.8z" fill="#5b3427"/>
        <path d="M717.53 305.77l.81-.54a5.84 5.84 0 0 1 .66-.52s1.41-3.11 2.3-3.8a20.43 20.43 0 0 1 3.43-1.23h2a3.54 3.54 0 0 1-2.52 1.43l-.81.57a5.31 5.31 0 0 1 .39 3.49 3.17 3.17 0 0 1-1.09 2s-1.3 1.52-1.87 2c-1.4 1.23-4.06 1.75-4.81.46-.68-1.03-.02-2.63 1.51-3.86z" fill="#724c3b"/>
      </g>
      <path style="mix-blend-mode:multiply" fill="#dfe9f8" d="M692.49 316.81l-.07-9.22.56.62.56 9.81-1.05-1.21z"/>
      <circle cx="680.37" cy="282.7" r="6.87" fill="#120667"/>
      <g>
        <ellipse cx="680.14" cy="298.2" rx="2.13" ry="3.68" transform="rotate(-60 680.140671 298.2018015)" fill="#eba87c"/>
        <path fill="#5b3427" d="M683.5 299.32v-5.08l-6.72-2.35v5.05l6.72 2.38z"/>
        <ellipse cx="680.14" cy="298.2" rx="2.13" ry="3.68" transform="rotate(-60 680.140671 298.2018015)" fill="#5b3427"/>
        <path d="M676.78 287.76l6.72 2.35v5.08a1.35 1.35 0 0 1-.16.72c-.59 1-2.49 1-4.25 0-1.46-.84-2.34-2.11-2.28-3.1z" style="mix-blend-mode:multiply" fill="#724c3b"/>
      </g>
      <path d="M685.86 294.27c-1 1.76-4.31 1.76-7.36 0a7.82 7.82 0 0 1-3.91-4.54c-.06-.3.71-.4.73-.67a3.21 3.21 0 0 0-.5-1.16c1-1.76 4.31-1.76 7.36 0s4.69 4.61 3.68 6.37z" fill="#724c3b"/>
      <path d="M674.67 280.89h12.27s1.26 8.25-1 13.2L675.31 289z" fill="#724c3b"/>
      <path d="M673.32 287.27a3.3 3.3 0 0 0 1.09 2.78c.74.59 1.46.31 1.6-.63a3.3 3.3 0 0 0-1.09-2.78c-.74-.64-1.45-.31-1.6.63z" fill="#724c3b"/>
      <path d="M684.83 278.26c-1.79-1-3.73-1-4.32 0a1.88 1.88 0 0 1 .29.68c0 .16-.46.22-.43.39a2.57 2.57 0 0 0 .17.5l-6.12.54v4.19l.33.42-.33.57 2 3.41.63-1.09-.91-1.58h.08c1.27-1.65-.52-3 .19-4.34a2.11 2.11 0 0 1 2.23-.61 10.3 10.3 0 0 0 7.25 1.41A1.6 1.6 0 0 0 687 282c.59-1-.38-2.71-2.17-3.74z" fill="#120667"/>
      <circle cx="677.78" cy="282.7" r="1.59" fill="#724c3b"/>
      <path d="M683.56 300.4c-.79 1.11-3 .91-4.92-.46a5 5 0 0 1-2.34-3.51" fill="none" stroke="#2cd4d9" stroke-linecap="round" stroke-miterlimit="10" stroke-width=".9245226"/>
      <path d="M675.09 337.22s1.4 3.44-5.24 5.08c0 0 1.86 4.43 5.87 5.08 0 0 4.76-3.17 5.34-7.65-.01.02-4.37-.73-5.97-2.51z" fill="#120667"/>
      <path d="M669.6 315a35.84 35.84 0 0 0 6.11-2.87l-.73 1.84a51.48 51.48 0 0 1-5.28 1.84z" style="mix-blend-mode:multiply" fill="#dfe9f8"/>
    </g>
    <g>
      <path fill="#fff" d="M726.72 286.21l48.27-27.87v7.77l.01 48.75-48.28 27.87-11.01 6.36-.01-44.14V292.57l11.02-6.36z"/>
      <g opacity=".5">
        <path fill="#120667" d="M774.99 266.11v-7.77l-11.68 6.74v8l11.68-6.75v-.22z"/>
        <path fill="#2cd4d9" d="M763.31 273.08v5.2l11.69-6.75-.01-5.2-11.68 6.75z"/>
        <path fill="#120667" d="M775 271.53l-11.69 6.75v43.33l11.69-6.75v-43.33z"/>
        <path fill="#fff" d="M763.31 265.08l-36.59 21.13-11.02 6.36v8l47.61-27.49v-8z"/>
        <path fill="#dfe9f8" d="M763.31 273.08l-47.61 27.49.01 48.52 11.01-6.36 36.59-21.12v-48.53z"/>
        <path fill="#2cd4d9" d="M766.06 266.89v1.34l6.49-3.7v-1.34l-6.49 3.7z"/>
      </g>
    </g>
  </g>
</svg>
